HIERARCHY
ROOT root
{
	OFFSET	0	13.1	24.9
	CHANNELS 6  Xposition Yposition Zposition Xrotation Yrotation Zrotation
	JOINT spine_1
	{
		OFFSET	0	9.99999	0
		CHANNELS 3  Xrotation Yrotation Zrotation
		JOINT spine_2
		{
			OFFSET	0	112	-10
			CHANNELS 3  Xrotation Yrotation Zrotation
			JOINT spine_3
			{
				OFFSET	0	206.5	19.3
				CHANNELS 3  Xrotation Yrotation Zrotation
				JOINT spine_4
				{
					OFFSET	0	110.4	14.6
					CHANNELS 3  Xrotation Yrotation Zrotation
					JOINT neck_1
					{
						OFFSET	0	71.8	-50.3
						CHANNELS 3  Xrotation Yrotation Zrotation
						JOINT neck_2
						{
							OFFSET	0	86.2	-25.8
							CHANNELS 3  Xrotation Yrotation Zrotation
							JOINT head_ee
							{
								OFFSET	0	179.8	-8.7
								CHANNELS 3  Xrotation Yrotation Zrotation
								End Site
								{
									OFFSET	1	0	0
								}
							}
						}
					}
					JOINT left_clavicle
					{
						OFFSET	-43.2	22.4	-70.8
						CHANNELS 3  Xrotation Yrotation Zrotation
						JOINT left_shoulder
						{
							OFFSET	-93.9	-5.79999	48.7
							CHANNELS 3  Xrotation Yrotation Zrotation
							JOINT left_elbow
							{
								OFFSET	-291.4	-30.8	15.2
								CHANNELS 3  Xrotation Yrotation Zrotation
								JOINT left_lowarm_twist
								{
									OFFSET	-110.7	-3.89999	13.6
									CHANNELS 3  Xrotation Yrotation Zrotation
									JOINT left_hand
									{
										OFFSET	-110.7	-3.89999	13.6
										CHANNELS 3  Xrotation Yrotation Zrotation
										JOINT left_ee
										{
											OFFSET	-80.8	-5.10001	12.1
											CHANNELS 3  Xrotation Yrotation Zrotation
											End Site
											{
												OFFSET	1	0	0
											}
										}
									}
								}
							}
						}
					}
					JOINT right_clavicle
					{
						OFFSET	43.2	22.4	-70.8
						CHANNELS 3  Xrotation Yrotation Zrotation
						JOINT right_shoulder
						{
							OFFSET	93.9	-5.79999	48.7
							CHANNELS 3  Xrotation Yrotation Zrotation
							JOINT right_elbow
							{
								OFFSET	291.4	-30.8	15.2
								CHANNELS 3  Xrotation Yrotation Zrotation
								JOINT right_lowarm_twist
								{
									OFFSET	110.7	-3.89999	13.6
									CHANNELS 3  Xrotation Yrotation Zrotation
									JOINT right_hand
									{
										OFFSET	110.7	-3.89999	13.6
										CHANNELS 3  Xrotation Yrotation Zrotation
										JOINT right_ee
										{
											OFFSET	80.8	-5.10001	12.1
											CHANNELS 3  Xrotation Yrotation Zrotation
											End Site
											{
												OFFSET	1	0	0
											}
										}
									}
								}
							}
						}
					}
				}
			}
		}
	}
	JOINT left_hip
	{
		OFFSET	-82.8	-127.5	0.300001
		CHANNELS 3  Xrotation Yrotation Zrotation
		JOINT left_knee
		{
			OFFSET	-28.2	-396.7	2.2
			CHANNELS 3  Xrotation Yrotation Zrotation
			JOINT left_ankle
			{
				OFFSET	-11.7	-411.3	35.4
				CHANNELS 3  Xrotation Yrotation Zrotation
				JOINT left_toes
				{
					OFFSET	0	-60	-88.6
					CHANNELS 3  Xrotation Yrotation Zrotation
					JOINT left_foot_ee
					{
						OFFSET	-22.5	-16.5	-42.2
						CHANNELS 3  Xrotation Yrotation Zrotation
						End Site
						{
							OFFSET	1	0	0
						}
					}
				}
			}
		}
	}
	JOINT right_hip
	{
		OFFSET	82.8	-127.5	0.300001
		CHANNELS 3  Xrotation Yrotation Zrotation
		JOINT right_knee
		{
			OFFSET	28.2	-396.7	2.2
			CHANNELS 3  Xrotation Yrotation Zrotation
			JOINT right_ankle
			{
				OFFSET	11.7	-411.3	35.4
				CHANNELS 3  Xrotation Yrotation Zrotation
				JOINT right_toes
				{
					OFFSET	0	-60	-88.6
					CHANNELS 3  Xrotation Yrotation Zrotation
					JOINT right_foot_ee
					{
						OFFSET	22.5	-16.5	-42.2
						CHANNELS 3  Xrotation Yrotation Zrotation
						End Site
						{
							OFFSET	1	0	0
						}
					}
				}
			}
		}
	}
}
MOTION
Frames: 16
Frame Time: 0.02
1226.5723093 735.276 -1679.82203967 -13.2108627732 63.170638321 12.9451987494 2.17875 -0.320949 -2.5795 2.18244 -0.156215 -2.59469 2.1892 0.294319 -2.58268 2.17991 -0.117118 -2.59674 -6.99155 1.12271 7.88947 -6.80938 -3.62689 8.1264 -0.0 0.0 -0.0 5.14651 2.43147 10.0117 -13.6485 -2.28702 73.6754 0.657257 -18.0346 0.104304 86.1305 -4.56238 -8.91691 2.44251 14.7036 21.7778 -0.0 0.0 -0.0 0.648341 28.0916 1.80575 -8.34008 -16.4718 -78.3818 1.63616 39.0219 -0.579782 -3.7836 0.148581 -0.460153 -0.482178 -28.9293 -8.6842 0.0 0.0 0.0 41.5237 -24.8157 11.406 -66.6648 -2.96098 9.2167 -13.4848 9.63023 2.01879 16.6256 -0.0 -0.0 -0.0 0.0 -0.0 22.0976 -2.7751 -5.50094 -25.6934 -0.184783 -3.90565 31.6466 -20.5102 4.19529 -25.6342 0.0 0.0 0.0 0.0 0.0 
1223.57967146 735.444 -1694.81277121 -11.4348847557 59.6848371194 10.9191858814 2.04644 -0.355513 -2.62025 2.05024 -0.188118 -2.63754 2.05874 0.276265 -2.62978 2.04912 -0.142377 -2.64041 -7.18937 1.23418 6.43514 -7.0695 -2.34275 6.68056 -0.0 0.0 -0.0 5.23795 3.48359 10.2073 -14.5304 -1.51821 73.8035 0.595016 -16.4232 0.0858669 85.3619 -4.46991 -8.88268 2.33033 15.5332 21.2765 -0.0 0.0 -0.0 0.943145 28.491 1.20672 -7.69399 -14.1286 -78.2206 1.92485 43.6322 -0.770575 -3.11328 0.120044 -0.379351 -0.705646 -28.7665 -7.40753 0.0 0.0 0.0 44.1441 -22.5916 10.8475 -67.7889 -3.09708 9.32444 -10.5913 11.1356 1.58164 16.437 -0.0 -0.0 -0.0 0.0 -0.0 20.7353 -3.11676 -5.33306 -25.5603 -0.188357 -3.88552 31.9585 -22.355 4.26699 -25.6986 0.0 0.0 0.0 0.0 0.0 
1223.4011953 725.331 -1710.80667354 -11.3490046098 55.0253097696 10.5065389467 2.35062 -0.144247 -2.55218 2.35424 0.0183932 -2.55619 2.35285 0.452623 -2.51589 2.34402 0.0497409 -2.55577 -7.53772 2.51865 5.70375 -7.44714 0.61098 6.20377 -0.0 0.0 -0.0 4.82013 1.63329 9.36504 -12.5012 1.18966 74.6905 0.423333 -11.8439 0.0439113 85.1988 -4.45035 -8.87526 2.14012 17.0712 20.4791 -0.0 0.0 -0.0 1.33166 29.5417 0.473348 -5.75401 -13.1029 -77.2843 1.98439 44.5041 -0.811985 -4.24783 0.168898 -0.515917 -0.544718 -26.6822 -7.47756 0.0 0.0 0.0 47.5004 -18.7477 8.57465 -60.7112 -2.27727 8.60333 -16.6432 14.9605 2.51269 14.8576 -0.0 -0.0 -0.0 0.0 -0.0 13.1428 -3.05085 -8.61362 -16.3892 -0.321155 -2.48602 35.7183 -21.0616 4.63663 -27.1598 0.0 0.0 0.0 0.0 0.0 
1210.22128774 723.94 -1721.45041821 -11.9804044655 56.0209445677 11.8003587611 2.27704 -0.014508 -2.60194 2.28079 0.151033 -2.59759 2.27335 0.594025 -2.53331 2.26444 0.186623 -2.59528 -7.87421 3.14398 5.26132 -7.79904 2.12913 5.89383 -0.0 0.0 -0.0 4.25889 1.38218 8.27904 -11.5324 1.74287 75.081 0.302999 -8.53638 0.0226135 84.2225 -4.33367 -8.82965 1.97375 18.8346 19.92 -0.0 0.0 -0.0 1.73737 29.4034 -0.421945 -4.30312 -13.5758 -74.1362 2.07421 45.7717 -0.875655 -4.58784 0.184066 -0.556657 -0.346923 -23.5872 -7.40042 0.0 0.0 0.0 46.1828 -16.0495 6.79873 -54.8429 -1.66959 7.9333 -20.8052 18.8034 3.17782 15.0835 -0.0 -0.0 -0.0 0.0 -0.0 10.0079 -5.30876 -10.2068 -6.89017 -0.221756 -1.03355 38.4438 -21.3209 4.91316 -28.183 0.0 0.0 0.0 0.0 0.0 
1196.3237653 728.495 -1737.25926412 -11.2435141614 56.1136272935 11.3844184497 2.17876 0.0674475 -2.51999 2.18227 0.227613 -2.5106 2.17178 0.658922 -2.4333 2.16361 0.266485 -2.50677 -8.11268 3.84943 5.19862 -8.04146 3.51711 5.98539 -0.0 0.0 -0.0 3.7051 2.19894 7.26022 -11.987 2.11933 76.4163 0.214867 -6.07576 0.0114031 83.526 -4.25091 -8.79591 1.73484 20.6937 18.942 -0.0 0.0 -0.0 1.87571 28.8903 -0.776541 -3.97252 -14.04 -71.8201 2.10616 46.2092 -0.898638 -5.14653 0.209514 -0.623402 -0.159842 -18.8431 -6.66455 0.0 0.0 0.0 45.936 -14.3883 5.33543 -50.0088 -1.22293 7.33761 -24.1365 21.8358 3.72896 15.2585 -0.0 -0.0 -0.0 0.0 -0.0 4.66205 -6.22743 -11.8495 -2.10568 -0.080955 -0.312993 42.6575 -21.3815 5.30311 -27.1589 0.0 0.0 0.0 0.0 0.0 
1173.06300424 722.731 -1746.69941886 -10.5968208495 57.0685982813 11.2043842844 2.09656 0.0578733 -2.50025 2.10001 0.216803 -2.49151 2.09015 0.648398 -2.41545 2.0821 0.258909 -2.48749 -8.27172 4.22785 4.57256 -8.21947 4.68407 5.45279 -0.0 0.0 -0.0 3.29573 3.68588 6.56753 -11.401 1.26946 77.1107 0.201064 -5.6881 0.00998864 82.5639 -4.13728 -8.74764 1.19225 22.9038 16.2493 -0.0 0.0 -0.0 2.53857 28.5254 -2.25346 -3.64205 -15.3014 -71.5128 2.29325 48.6366 -1.03643 -6.72856 0.285097 -0.811039 -0.293052 -15.1667 -4.38477 0.0 0.0 0.0 43.3114 -13.0821 4.33255 -45.874 -0.882111 6.8002 -23.9603 25.1547 3.75907 16.1666 -0.0 -0.0 -0.0 0.0 -0.0 2.32374 -7.64852 -11.3697 3.17819 0.143865 0.466377 42.0357 -23.1842 5.30023 -26.1383 0.0 0.0 0.0 0.0 0.0 
1155.29506083 721.418 -1756.27139973 -10.95084984 56.9714049333 11.4137539308 2.18951 -0.0552999 -2.47397 2.19291 0.102188 -2.47248 2.18806 0.527985 -2.41764 2.17993 0.13966 -2.47065 -8.25118 5.69228 4.31748 -8.21158 7.60086 5.52322 -0.0 0.0 -0.0 3.13208 4.62993 6.31589 -9.82428 0.691648 77.5512 0.193565 -5.47729 0.00925915 82.8736 -4.17378 -8.76339 -0.0772181 26.3341 9.96949 -0.0 0.0 -0.0 2.77754 29.2604 -2.69332 -2.86955 -16.5101 -72.0027 2.33225 49.1149 -1.06581 -8.56389 0.37925 -1.02604 -0.584062 -10.048 -0.419367 0.0 0.0 0.0 42.3266 -12.2069 3.7209 -36.3681 -0.252024 5.48314 -25.4978 28.9697 4.09008 13.173 -0.0 -0.0 -0.0 0.0 -0.0 -0.414613 -7.21173 -11.5284 5.64879 0.273479 0.823113 42.2533 -23.9045 5.34252 -22.8575 0.0 0.0 0.0 0.0 0.0 
1141.96373142 715.273 -1766.21519561 -9.20237751032 56.9433137821 9.83355499804 2.06145 -0.0857276 -2.28029 2.06434 0.0595085 -2.28113 2.06171 0.457735 -2.23554 2.05475 0.099024 -2.27975 -9.17721 6.38365 3.58286 -9.16577 9.51163 5.01766 -0.0 0.0 -0.0 2.71456 5.63561 5.6092 -9.36798 0.102552 77.5423 0.212072 -5.99731 0.0111092 82.7836 -4.16316 -8.75883 -1.19431 28.8361 4.79433 -0.0 0.0 -0.0 2.76214 29.7978 -2.60223 -2.05026 -18.5582 -71.8848 2.36085 49.46 -1.08749 -9.84907 0.449267 -1.17478 -0.799739 -5.24616 3.05339 0.0 0.0 0.0 42.1636 -11.3593 3.85322 -29.6691 0.0565998 4.5022 -24.6262 29.8039 3.97221 10.9344 -0.0 -0.0 -0.0 0.0 -0.0 -2.46318 -7.25154 -12.1406 6.30896 0.310715 0.917481 42.0037 -24.458 5.33791 -20.3473 0.0 0.0 0.0 0.0 0.0 
1139.86568436 714.173 -1779.58746003 -9.03778616217 56.2057521175 10.0227226805 1.98197 -0.0936149 -2.07396 1.98437 0.0385175 -2.07572 1.98281 0.403883 -2.03643 1.97703 0.0772715 -2.07464 -10.0079 6.9775 3.38237 -10.0162 10.8543 5.03354 -0.0 0.0 -0.0 2.48386 6.36283 5.23709 -9.04414 -0.33533 77.6072 0.30957 -8.71869 0.0235992 82.458 -4.12482 -8.74221 -2.35612 28.9813 -1.37068 -0.0 0.0 -0.0 2.62549 29.9376 -2.291 -0.353701 -20.7173 -71.2796 2.43486 50.3309 -1.1441 -10.757 0.500738 -1.27889 -1.17707 -0.878502 7.49292 0.0 0.0 0.0 42.0474 -11.0001 4.06899 -20.4594 0.289895 3.10961 -20.8686 27.7261 3.31957 8.97601 -0.0 -0.0 -0.0 0.0 -0.0 -3.25847 -7.52363 -12.8839 5.02722 0.23942 0.733884 42.1305 -24.8077 5.36122 -18.5102 0.0 0.0 0.0 0.0 0.0 
1135.53572221 714.173 -1776.23512181 -9.23523684101 57.0149505055 10.2591994863 1.98197 -0.0936149 -2.07396 1.98437 0.0385175 -2.07572 1.98281 0.403883 -2.03643 1.97703 0.0772715 -2.07464 -10.0079 6.9775 3.38237 -10.0162 10.8543 5.03354 -0.0 0.0 -0.0 2.48386 6.36283 5.23709 -9.04414 -0.33533 77.6072 0.30957 -8.71869 0.0235992 82.458 -4.12482 -8.74221 -2.35612 28.9813 -1.37068 -0.0 0.0 -0.0 2.62549 29.9376 -2.291 -0.353701 -20.7173 -71.2796 2.43486 50.3309 -1.1441 -10.757 0.500738 -1.27889 -1.17707 -0.878502 7.49292 0.0 0.0 0.0 42.0474 -11.0001 4.06899 -20.4594 0.289895 3.10961 -20.8686 27.7261 3.31957 8.97601 -0.0 -0.0 -0.0 0.0 -0.0 -3.25847 -7.52363 -12.8839 5.02722 0.23942 0.733884 42.1305 -24.8077 5.36122 -18.5102 0.0 0.0 0.0 0.0 0.0 
1129.93793304 714.173 -1771.75137134 -9.51012623847 58.0740809018 10.5849575179 1.98197 -0.0936149 -2.07396 1.98437 0.0385175 -2.07572 1.98281 0.403883 -2.03643 1.97703 0.0772715 -2.07464 -10.0079 6.9775 3.38237 -10.0162 10.8543 5.03354 -0.0 0.0 -0.0 2.48386 6.36283 5.23709 -9.04414 -0.33533 77.6072 0.30957 -8.71869 0.0235992 82.458 -4.12482 -8.74221 -2.35612 28.9813 -1.37068 -0.0 0.0 -0.0 2.62549 29.9376 -2.291 -0.353701 -20.7173 -71.2796 2.43486 50.3309 -1.1441 -10.757 0.500738 -1.27889 -1.17707 -0.878502 7.49292 0.0 0.0 0.0 42.0474 -11.0001 4.06899 -20.4594 0.289895 3.10961 -20.8686 27.7261 3.31957 8.97601 -0.0 -0.0 -0.0 0.0 -0.0 -3.25847 -7.52363 -12.8839 5.02722 0.23942 0.733884 42.1305 -24.8077 5.36122 -18.5102 0.0 0.0 0.0 0.0 0.0 
1125.86680873 712.935 -1784.91310066 -10.6199179825 57.7310464832 11.4447369927 1.92908 -0.313103 -1.94082 1.93115 -0.188994 -1.9568 1.93761 0.160369 -1.95935 1.93229 -0.151026 -1.96009 -10.1046 6.85678 2.66001 -10.1278 11.1237 4.31094 -0.0 0.0 -0.0 2.73695 5.68131 5.65287 -6.9862 -0.21972 77.6939 0.374113 -10.4994 0.0343742 82.7678 -4.16129 -8.75802 -3.44251 28.8633 -7.2828 -0.0 0.0 -0.0 2.48548 29.6437 -2.01901 -0.407586 -22.1936 -72.8784 2.40927 50.0333 -1.12444 -13.2393 0.649843 -1.55932 -1.58501 3.22565 12.1117 0.0 0.0 0.0 40.7308 -10.769 3.80348 -12.9659 0.313118 1.96092 -13.8999 24.2169 2.16001 7.7492 -0.0 -0.0 -0.0 0.0 -0.0 -2.55095 -7.88472 -12.8793 2.76721 0.123805 0.406519 41.5988 -24.8198 5.31274 -17.2034 0.0 0.0 0.0 0.0 0.0 
1122.50883117 712.935 -1782.2137871 -10.8058098907 58.3441391351 11.6638437201 1.92908 -0.313103 -1.94082 1.93115 -0.188994 -1.9568 1.93761 0.160369 -1.95935 1.93229 -0.151026 -1.96009 -10.1046 6.85678 2.66001 -10.1278 11.1237 4.31094 -0.0 0.0 -0.0 2.73695 5.68131 5.65287 -6.9862 -0.21972 77.6939 0.374113 -10.4994 0.0343742 82.7678 -4.16129 -8.75802 -3.44251 28.8633 -7.2828 -0.0 0.0 -0.0 2.48548 29.6437 -2.01901 -0.407586 -22.1936 -72.8784 2.40927 50.0333 -1.12444 -13.2393 0.649843 -1.55932 -1.58501 3.22565 12.1117 0.0 0.0 0.0 40.7308 -10.769 3.80348 -12.9659 0.313118 1.96092 -13.8999 24.2169 2.16001 7.7492 -0.0 -0.0 -0.0 0.0 -0.0 -2.55095 -7.88472 -12.8793 2.76721 0.123805 0.406519 41.5988 -24.8198 5.31274 -17.2034 0.0 0.0 0.0 0.0 0.0 
1117.07456387 712.935 -1777.71546646 -11.1273248953 59.3471691947 12.0395285886 1.92908 -0.313103 -1.94082 1.93115 -0.188994 -1.9568 1.93761 0.160369 -1.95935 1.93229 -0.151026 -1.96009 -10.1046 6.85678 2.66001 -10.1278 11.1237 4.31094 -0.0 0.0 -0.0 2.73695 5.68131 5.65287 -6.9862 -0.21972 77.6939 0.374113 -10.4994 0.0343742 82.7678 -4.16129 -8.75802 -3.44251 28.8633 -7.2828 -0.0 0.0 -0.0 2.48548 29.6437 -2.01901 -0.407586 -22.1936 -72.8784 2.40927 50.0333 -1.12444 -13.2393 0.649843 -1.55932 -1.58501 3.22565 12.1117 0.0 0.0 0.0 40.7308 -10.769 3.80348 -12.9659 0.313118 1.96092 -13.8999 24.2169 2.16001 7.7492 -0.0 -0.0 -0.0 0.0 -0.0 -2.55095 -7.88472 -12.8793 2.76721 0.123805 0.406519 41.5988 -24.8198 5.31274 -17.2034 0.0 0.0 0.0 0.0 0.0 
1094.38288696 715.849 -1810.70848775 -12.4873546444 55.4471957241 12.3990185266 1.92161 -0.237266 -1.73864 1.92329 -0.126169 -1.75021 1.92713 0.185967 -1.74487 1.92289 -0.0918926 -1.75234 -7.6684 6.36951 2.11129 -7.66702 10.3701 3.45203 -0.0 0.0 -0.0 2.92909 4.60152 5.93947 -9.59886 -1.05427 77.5654 0.547219 -15.1672 0.0728559 83.7463 -4.27704 -8.80669 -4.62791 28.9621 -13.7246 -0.0 0.0 -0.0 2.43386 28.2343 -2.05722 -1.49465 -23.9267 -75.8503 2.58723 52.0282 -1.26283 -19.2736 1.06195 -2.21229 -2.81617 9.78008 23.8285 0.0 0.0 0.0 40.3311 -10.1668 3.55539 -2.90728 0.108738 0.432876 -2.40108 16.2014 0.356496 7.31558 -0.0 -0.0 -0.0 0.0 -0.0 -3.42233 -3.98432 -12.2315 0.681286 0.028653 0.10062 41.2285 -20.6639 5.15695 -15.8066 0.0 0.0 0.0 0.0 0.0 
1094.77645635 715.849 -1811.03383693 -12.4663034856 55.3815999045 12.3734486356 1.92161 -0.237266 -1.73864 1.92329 -0.126169 -1.75021 1.92713 0.185967 -1.74487 1.92289 -0.0918926 -1.75234 -7.6684 6.36951 2.11129 -7.66702 10.3701 3.45203 -0.0 0.0 -0.0 2.92909 4.60152 5.93947 -9.59886 -1.05427 77.5654 0.547219 -15.1672 0.0728559 83.7463 -4.27704 -8.80669 -4.62791 28.9621 -13.7246 -0.0 0.0 -0.0 2.43386 28.2343 -2.05722 -1.49465 -23.9267 -75.8503 2.58723 52.0282 -1.26283 -19.2736 1.06195 -2.21229 -2.81617 9.78008 23.8285 0.0 0.0 0.0 40.3311 -10.1668 3.55539 -2.90728 0.108738 0.432876 -2.40108 16.2014 0.356496 7.31558 -0.0 -0.0 -0.0 0.0 -0.0 -3.42233 -3.98432 -12.2315 0.681286 0.028653 0.10062 41.2285 -20.6639 5.15695 -15.8066 0.0 0.0 0.0 0.0 0.0 
